HIERARCHY
ROOT Hips
{
    OFFSET 0.000000 0.000000 0.000000
    CHANNELS 6 Xposition Yposition Zposition Zrotation Xrotation Yrotation
    JOINT Spine
    {
        OFFSET -0.000000 7.883683 0.000000
        CHANNELS 3 Zrotation Xrotation Yrotation
        JOINT Spine1
        {
            OFFSET -0.000000 24.776327 0.000000
            CHANNELS 3 Zrotation Xrotation Yrotation
            JOINT Neck
            {
                OFFSET -0.000000 24.674574 2.243143
                CHANNELS 3 Zrotation Xrotation Yrotation
                JOINT Head
                {
                    OFFSET -0.000000 13.459947 -1.922849
                    CHANNELS 3 Zrotation Xrotation Yrotation
                    End Site
                    {
                        OFFSET -0.000000 24.035618 0.000000
                    }
                }
            }
            JOINT LeftShoulder
            {
                OFFSET 3.810223 22.323311 -0.325006
                CHANNELS 3 Zrotation Xrotation Yrotation
                JOINT LeftArm
                {
                    OFFSET 12.560579 0.000000 0.000000
                    CHANNELS 3 Zrotation Xrotation Yrotation
                    JOINT LeftForeArm
                    {
                        OFFSET 28.806782 0.000000 0.000000
                        CHANNELS 3 Zrotation Xrotation Yrotation
                        JOINT LeftHand
                        {
                            OFFSET 23.813900 0.000000 0.000000
                            CHANNELS 3 Zrotation Xrotation Yrotation
                            End Site
                            {
                                OFFSET 14.421371 0.000000 0.000000
                            }
                        }
                    }
                }
            }
            JOINT RightShoulder
            {
                OFFSET -3.823061 22.323311 -0.325006
                CHANNELS 3 Zrotation Xrotation Yrotation
                JOINT RightArm
                {
                    OFFSET -12.560579 0.000000 0.000000
                    CHANNELS 3 Zrotation Xrotation Yrotation
                    JOINT RightForeArm
                    {
                        OFFSET -28.806782 0.000000 0.000000
                        CHANNELS 3 Zrotation Xrotation Yrotation
                        JOINT RightHand
                        {
                            OFFSET -23.813900 0.000000 0.000000
                            CHANNELS 3 Zrotation Xrotation Yrotation
                            End Site
                            {
                                OFFSET -14.421371 0.000000 0.000000
                            }
                        }
                    }
                }
            }
        }
    }
    JOINT LeftUpLeg
    {
        OFFSET 9.614247 0.000000 0.000000
        CHANNELS 3 Zrotation Xrotation Yrotation
        JOINT LeftLeg
        {
            OFFSET -0.000000 -41.464203 0.000000
            CHANNELS 3 Zrotation Xrotation Yrotation
            JOINT LeftFoot
            {
                OFFSET -0.000000 -34.276012 0.000000
                CHANNELS 3 Zrotation Xrotation Yrotation
                JOINT LeftToeBase
                {
                    OFFSET -0.000000 -6.249260 14.421371
                    CHANNELS 3 Zrotation Xrotation Yrotation
                    End Site
                    {
                        OFFSET -0.000000 0.000000 3.845699
                    }
                }
            }
        }
    }
    JOINT RightUpLeg
    {
        OFFSET -9.614247 0.000000 0.000000
        CHANNELS 3 Zrotation Xrotation Yrotation
        JOINT RightLeg
        {
            OFFSET -0.000000 -41.464203 0.000000
            CHANNELS 3 Zrotation Xrotation Yrotation
            JOINT RightFoot
            {
                OFFSET -0.000000 -34.276012 0.000000
                CHANNELS 3 Zrotation Xrotation Yrotation
                JOINT RightToeBase
                {
                    OFFSET -0.000000 -6.249260 14.421371
                    CHANNELS 3 Zrotation Xrotation Yrotation
                    End Site
                    {
                        OFFSET -0.000000 0.000000 3.845699
                    }
                }
            }
        }
    }
}
MOTION
Frames:    10
Frame Time:    0.004000
-7.635810    84.577469    -45.816238    0.191033    -6.453537    -0.213886    -0.932824    7.678164    0.090582    -1.875099    13.676703    0.252847    3.980093    10.517849    -6.370984    -3.598771    17.360088    -6.810322    -4.647826    5.859643    3.360596    -17.881311    59.048885    -57.498680    1.644652    -6.442239    -28.705359    -11.292793    -5.119553    -9.168812    1.567731    3.498779    13.508443    52.973709    42.637066    35.546928    0.584227    -0.858593    10.688528    -6.923441    -1.307537    6.511222    -3.909525    6.317509    1.362835    -3.498080    13.898491    -2.670338    10.995757    -10.644102    20.085016    0.000000    0.000000    0.000000    -0.661321    -19.020638    -4.521719    -2.213042    29.009491    -2.450771    1.701838    -3.897120    -5.552283    0.000000    0.000000    0.000000    
-7.613438    84.545654    -45.508934    0.223003    -6.461455    -0.106365    -0.929096    7.646216    0.062095    -1.847131    13.676984    0.232813    3.984848    10.510140    -6.401702    -3.587668    17.381380    -6.842252    -4.636010    5.883703    3.358589    -17.871992    59.098824    -57.537819    1.664531    -6.383801    -28.682957    -11.302236    -5.043472    -9.290032    1.604672    3.467785    13.467192    52.930664    42.670326    35.578850    0.628148    -0.835064    10.586613    -7.207832    -1.307682    6.573233    -3.948884    6.575213    1.250841    -3.512146    13.817882    -2.619249    10.707797    -10.823427    20.145824    0.000000    0.000000    0.000000    -0.695996    -19.184923    -4.529207    -2.085092    28.150648    -2.589343    1.642384    -3.438706    -5.714846    0.000000    0.000000    0.000000    
-7.592928    84.516235    -45.199703    0.232337    -6.439091    -0.007694    -0.892520    7.567206    0.041901    -1.827940    13.691679    0.203353    4.003746    10.551426    -6.426223    -3.621618    17.313171    -6.869101    -4.669611    5.940456    3.355080    -17.832335    59.089542    -57.546677    1.645742    -6.430353    -28.737711    -11.514154    -5.078032    -9.277397    1.587998    3.488998    13.498163    52.988304    42.529026    35.530659    0.663495    -0.838340    10.651251    -7.141448    -1.307212    6.516299    -3.927160    6.794587    1.098650    -3.601232    13.846066    -2.630310    10.937439    -11.046986    20.199963    0.000000    0.000000    0.000000    -0.707039    -19.377405    -4.500013    -1.928103    27.288149    -2.726294    1.119271    -3.077604    -5.642521    0.000000    0.000000    0.000000    
-7.576683    84.483131    -44.888561    0.266063    -6.454705    0.085160    -0.906479    7.526916    0.049745    -1.783834    13.713625    0.206671    4.009009    10.552063    -6.488878    -3.604152    17.315388    -6.934643    -4.643390    5.959155    3.307345    -17.914381    59.109814    -57.512657    1.627893    -6.405262    -28.741867    -11.531613    -5.059281    -9.244732    1.563470    3.321283    13.404189    53.212456    42.563065    35.365963    0.683076    -0.752044    10.615413    -7.244881    -1.224653    6.455788    -3.963481    7.051075    1.030490    -3.610406    13.800486    -2.613356    11.037899    -11.191925    20.249805    0.000000    0.000000    0.000000    -0.740816    -19.521505    -4.472838    -1.796839    26.409185    -2.850906    1.344627    -2.613348    -5.745463    0.000000    0.000000    0.000000    
-7.563941    84.448235    -44.575943    0.267806    -6.422988    0.162072    -0.877949    7.434573    0.032820    -1.762398    13.743792    0.187276    3.969716    10.544599    -6.511805    -3.521392    17.307610    -6.957810    -4.648237    5.950465    3.350478    -17.847164    59.171978    -57.581547    1.614349    -6.461692    -28.781084    -11.672475    -5.103214    -9.284001    1.581271    3.547927    13.460793    52.993294    42.367569    35.581856    0.694506    -0.792950    10.609903    -7.232109    -1.266653    6.467737    -3.977781    7.266851    1.034663    -3.578854    13.744970    -2.609478    11.063948    -11.403115    20.129614    0.000000    0.000000    0.000000    -0.741200    -19.707176    -4.400534    -1.616037    25.532761    -2.981204    1.477470    -2.195544    -5.975638    0.000000    0.000000    0.000000    
-7.547966    84.412209    -44.260815    0.286968    -6.415998    0.267145    -0.861536    7.383038    0.014810    -1.740190    13.732821    0.167050    3.975476    10.581121    -6.544780    -3.508132    17.299265    -6.991483    -4.664412    6.030200    3.347677    -17.734537    59.172882    -57.668556    1.594508    -6.483657    -28.834280    -11.674000    -5.124073    -9.336040    1.608190    3.545972    13.503026    53.010239    42.350681    35.510754    0.703899    -0.785075    10.612067    -7.198411    -1.261389    6.525972    -3.992342    7.509519    0.935958    -3.604743    13.675944    -2.608521    11.130792    -11.546223    20.173018    0.000000    0.000000    0.000000    -0.770163    -19.852573    -4.385906    -1.470843    24.675631    -3.067217    1.119476    -1.850149    -5.926305    0.000000    0.000000    0.000000    
-7.530429    84.375137    -43.947571    0.309848    -6.409223    0.360986    -0.850234    7.326697    -0.002376    -1.721353    13.749034    0.150412    3.966066    10.566730    -6.578941    -3.467816    17.318083    -7.026878    -4.644217    6.159788    3.445259    -17.541519    59.119125    -57.948551    1.555166    -6.562959    -28.830332    -11.577057    -5.228743    -9.266338    1.595983    3.258777    13.447431    53.303345    42.494995    35.277401    0.719507    -0.725422    10.505919    -7.198071    -1.197801    6.450734    -4.022789    7.744069    0.891521    -3.591563    13.637321    -2.619528    11.173475    -11.722878    20.192711    0.000000    0.000000    0.000000    -0.793174    -19.988005    -4.359031    -1.335275    23.791969    -3.221901    1.292487    -1.460299    -5.973401    0.000000    0.000000    0.000000    
-7.512403    84.337639    -43.631233    0.343360    -6.405542    0.449531    -0.842820    7.240793    -0.002617    -1.698456    13.824677    0.149397    3.949628    10.546464    -6.615532    -3.427225    17.297592    -7.065886    -4.648481    6.045533    3.354917    -17.788675    59.210674    -57.682049    1.538534    -6.523233    -28.879057    -11.685000    -5.184986    -9.253633    1.577800    3.603819    13.363550    52.847565    42.362545    35.806889    0.712087    -0.801946    10.470511    -7.168578    -1.268455    6.398748    -4.065293    7.995596    0.878933    -3.578013    13.496562    -2.084625    11.276634    -11.870232    19.603909    0.000000    0.000000    0.000000    -0.844400    -20.112595    -4.365350    -1.193178    22.909651    -3.215580    1.358980    -1.027605    -6.099125    0.000000    0.000000    0.000000    
-7.500988    84.298981    -43.318687    0.372837    -6.383327    0.551371    -0.853294    7.133511    -0.024687    -1.665091    13.908269    0.125478    3.979572    10.539287    -6.644945    -3.452797    17.233950    -7.100065    -4.628417    6.021351    3.381946    -17.828951    59.245045    -57.680798    1.506255    -6.547125    -28.919918    -11.784396    -5.213602    -9.204743    1.620920    3.499012    13.442307    52.997414    42.256294    35.574165    0.758029    -0.678730    10.546824    -7.188786    -1.159598    6.532796    -4.101484    8.229141    0.868171    -3.539618    13.410069    -2.042103    11.459011    -12.010971    19.483322    0.000000    0.000000    0.000000    -0.885659    -20.245104    -4.319561    -1.032082    22.014503    -3.303022    1.287635    -0.532973    -6.127270    0.000000    0.000000    0.000000    
-7.486427    84.258018    -42.998821    0.400033    -6.342414    0.637840    -0.841225    7.062762    -0.034307    -1.661141    13.870319    0.115243    3.963678    10.568968    -6.681034    -3.371667    17.254051    -7.135866    -4.615555    6.097602    3.369042    -17.868818    59.263264    -57.653572    1.501912    -6.604275    -28.957050    -11.588734    -5.283440    -9.243035    1.624947    3.333170    13.405602    53.176769    42.413506    35.396671    0.712751    -0.722463    10.513634    -6.993515    -1.183438    6.462984    -4.130201    8.443875    0.824586    -3.540498    13.345824    -2.052044    11.341424    -12.206361    19.593008    0.000000    0.000000    0.000000    -0.926191    -20.388144    -4.284272    -0.872358    21.129379    -3.377760    1.524504    -0.148916    -6.318428    0.000000    0.000000    0.000000    
